<svg version="1.1" id="Layer_1" xmlns="http://www.w3.org/2000/svg" x="0" y="0" viewBox="0 0 297.6 67" xml:space="preserve"><style>.st0{fill:#1c1080}</style><path class="st0" d="M88.8 61.2h208.8v3.5H88.8z"/><circle cx="33.5" cy="33.5" r="33.5" fill="#545454"/><g><path class="st0" d="M93.9 27c-1.8-1-3.2-2.3-4.2-4.1s-1.5-3.8-1.5-6.1.5-4.4 1.5-6.1c1-1.8 2.4-3.1 4.2-4.1 1.8-1 3.8-1.5 6.1-1.5 3.1 0 5.7.8 7.7 2.4V10c-1.9-1.7-4.4-2.6-7.5-2.6-1.8 0-3.4.4-4.9 1.2-1.4.8-2.6 1.9-3.4 3.3-.8 1.4-1.2 3.1-1.2 5s.4 3.6 1.2 5c.8 1.4 1.9 2.5 3.4 3.3 1.4.8 3 1.2 4.8 1.2 1.6 0 3-.2 4.3-.6 1.3-.4 2.4-1.1 3.5-2.1V26c-1.9 1.7-4.6 2.5-8 2.5-2.2 0-4.3-.5-6-1.5zM116.1 27c-1.8-1-3.2-2.3-4.2-4.1s-1.5-3.8-1.5-6.1.5-4.3 1.5-6.1c1-1.8 2.4-3.2 4.2-4.1 1.8-1 3.8-1.5 6-1.5s4.2.5 6 1.5 3.2 2.4 4.2 4.1c1 1.8 1.5 3.8 1.5 6.1s-.5 4.3-1.5 6.1c-1 1.8-2.4 3.1-4.2 4.1-1.8 1-3.8 1.5-6 1.5-2.3 0-4.3-.5-6-1.5zm10.6-1.9c1.4-.8 2.5-1.9 3.3-3.3.8-1.4 1.2-3.1 1.2-5s-.4-3.5-1.2-4.9c-.8-1.4-1.9-2.5-3.3-3.3-1.4-.8-3-1.2-4.7-1.2-1.7 0-3.3.4-4.7 1.2-1.4.8-2.5 1.9-3.3 3.3-.8 1.4-1.2 3.1-1.2 5s.4 3.6 1.2 5c.8 1.4 1.9 2.5 3.3 3.3 1.4.8 3 1.2 4.7 1.2 1.7-.2 3.3-.5 4.7-1.3zM134.9 5.6h2.6l7.5 18.9 7.5-18.9h2.6L146.2 28h-2.3l-9-22.4zM159 5.6h2.5V28H159V5.6zM166 5.6h6.9c2.4 0 4.5.4 6.2 1.3 1.8.9 3.1 2.2 4.1 3.8.9 1.7 1.4 3.6 1.4 5.9 0 3.7-1.1 6.6-3.2 8.5-2.1 1.9-5.1 2.9-9 2.9H166V5.6zm6.2 20.3c3.4 0 5.9-.8 7.5-2.3 1.6-1.5 2.4-3.8 2.4-6.9 0-2.8-.8-5-2.3-6.6-1.6-1.6-3.9-2.4-6.9-2.4h-4.4v18.2h3.7zM187.8 17.5h9.8v2.1h-9.8v-2.1zM205.8 8.3l-5 3.6V9.5l5.2-3.8h2.2V28h-2.5V8.3zM215 28.2V26c.8.3 1.6.4 2.6.4 2.5 0 4.4-.8 5.7-2.3 1.3-1.5 2-3.8 2.2-6.9-.6.9-1.4 1.6-2.5 2-1.1.5-2.3.7-3.7.7-1.4 0-2.7-.3-3.8-.9-1.1-.6-2-1.5-2.6-2.6-.6-1.1-.9-2.4-.9-3.8 0-1.5.3-2.7 1-3.9.6-1.1 1.6-2 2.7-2.6 1.2-.6 2.6-1 4.2-1 2.5 0 4.4.8 5.9 2.4 1.5 1.6 2.2 3.9 2.2 7 0 4.5-.9 8-2.6 10.4s-4.3 3.6-7.7 3.6c-1 0-1.9-.1-2.7-.3zm8.9-11.9c1-.9 1.6-2.2 1.6-3.8 0-.9-.2-1.8-.7-2.6s-1.1-1.4-1.9-1.9c-.8-.5-1.8-.7-2.8-.7-1.6 0-2.9.5-3.9 1.5s-1.5 2.3-1.5 3.9.5 2.9 1.5 3.8c1 .9 2.3 1.4 3.9 1.4 1.5-.1 2.8-.6 3.8-1.6zM93.9 58.2c-1.8-1-3.2-2.3-4.2-4.1s-1.5-3.8-1.5-6.1.5-4.4 1.5-6.1c1-1.8 2.4-3.1 4.2-4.1 1.8-1 3.8-1.5 6.1-1.5 3.1 0 5.7.8 7.7 2.4v2.4c-1.9-1.7-4.4-2.6-7.5-2.6-1.8 0-3.4.4-4.9 1.2-1.4.8-2.6 1.9-3.4 3.3-.8 1.4-1.2 3.1-1.2 5s.4 3.6 1.2 5c.8 1.4 1.9 2.5 3.4 3.3 1.4.8 3 1.2 4.8 1.2 1.6 0 3-.2 4.3-.6 1.3-.4 2.4-1.1 3.5-2.1v2.5c-1.9 1.7-4.6 2.5-8 2.5-2.2-.1-4.3-.6-6-1.6zM111.8 36.8h2.5v22.4h-2.5V36.8zM118.8 36.8h2.4l12.3 18.1V36.8h2.5v22.4h-2.4L121.3 41v18.2h-2.5V36.8zM140.5 36.8h14.4v2.1H143v8h8.9V49H143v8h11.9v2.1h-14.4V36.8zM176 58.2c-1.8-1-3.2-2.3-4.2-4.1s-1.5-3.8-1.5-6.1.5-4.4 1.5-6.1c1-1.8 2.4-3.1 4.2-4.1s3.8-1.5 6.1-1.5c3.1 0 5.7.8 7.7 2.4v2.4c-1.9-1.7-4.4-2.6-7.5-2.6-1.8 0-3.4.4-4.9 1.2-1.4.8-2.6 1.9-3.4 3.3-.8 1.4-1.2 3.1-1.2 5s.4 3.6 1.2 5c.8 1.4 1.9 2.5 3.4 3.3 1.4.8 3 1.2 4.8 1.2 1.6 0 3-.2 4.3-.6 1.3-.4 2.4-1.1 3.5-2.1v2.5c-1.9 1.7-4.6 2.5-8 2.5-2.2-.1-4.2-.6-6-1.6zM193.9 36.8h14.4v2.1h-11.9v8h8.9V49h-8.9v8h11.9v2.1h-14.4V36.8zM224.3 36.8h14.4v2.1h-11.9v8h8.9V49h-8.9v10.2h-2.5V36.8zM246.9 36.8h2.3l8.9 22.4h-2.6l-2.4-6h-10.3l-2.4 6h-2.6l9.1-22.4zm5.6 14.3L248 39.7l-4.4 11.4h8.9zM265.3 58.2c-1.8-1-3.2-2.3-4.2-4.1s-1.5-3.8-1.5-6.1.5-4.4 1.5-6.1c1-1.8 2.4-3.1 4.2-4.1s3.8-1.5 6.1-1.5c3.1 0 5.7.8 7.7 2.4v2.4c-1.9-1.7-4.4-2.6-7.5-2.6-1.8 0-3.4.4-4.9 1.2-1.4.8-2.6 1.9-3.4 3.3-.8 1.4-1.2 3.1-1.2 5s.4 3.6 1.2 5c.8 1.4 1.9 2.5 3.4 3.3 1.4.8 3 1.2 4.8 1.2 1.6 0 3-.2 4.3-.6 1.3-.4 2.4-1.1 3.5-2.1v2.5c-1.9 1.7-4.6 2.5-8 2.5-2.2-.1-4.2-.6-6-1.6zM283.2 36.8h14.4v2.1h-11.9v8h8.9V49h-8.9v8h11.9v2.1h-14.4V36.8z"/></g></svg>
